# File created by Blade
# Date/Time:  Tue Jan 27 19:23:26 2015
#---------------------------------------------------------
:version 1.10
:name HOM
:units
  mass 1.0
  length 1.000000
  angle deg
:documentation
     Acclaim Skeleton File
:root
   axis xyz
   order TX TY TZ RX RY RZ
   position 0.000000 0.000000 0.000000
   orientation 0 0 0
:bonedata
   begin
      id 1
      name Spine_dum
      direction 0.000000 1.000000 0.000000
      length 6.116652
      axis 0.0 0.0 0.0 xyz
   end
   begin
      id 2
      name LeftUpLeg_dum
      direction 1.000000 0.000000 0.000000
      length 4.711765
      axis 0.0 0.0 0.0 xyz
   end
   begin
      id 3
      name RightUpLeg_dum
      direction -1.000000 0.000000 0.000000
      length 4.711765
      axis 0.0 0.0 0.0 xyz
   end
   begin
      id 4
      name Spine
      direction 0.000000 1.000000 0.000000
      length 0.000000
      axis 0.0 0.0 0.0 xyz
      dof rx ry rz
   end
   begin
      id 5
      name Spine_dum1
      direction 0.000000 1.000000 0.000000
      length 15.225563
      axis 0.0 0.0 0.0 xyz
   end
   begin
      id 6
      name Spine_dum2
      direction 0.000000 1.000000 0.000000
      length 8.977654
      axis 0.0 0.0 0.0 xyz
   end
   begin
      id 7
      name Spine_dum3
      direction 0.000000 1.000000 0.000000
      length 8.977654
      axis 0.0 0.0 0.0 xyz
   end
   begin
      id 8
      name Head
      direction 0.000000 1.000000 0.000000
      length 4.527550
      axis 0.0 0.0 0.0 xyz
      dof rx ry rz
   end
   begin
      id 9
      name LeftShoulder
      direction 1.000000 0.000000 0.000000
      length 7.110130
      axis 0.0 0.0 -90.0 xyz
      dof rx ry rz
   end
   begin
      id 10
      name LeftArm
      direction 1.000000 0.000000 0.000000
      length 10.398341
      axis 0.0 0.0 -90.0 xyz
      dof rx ry rz
   end
   begin
      id 11
      name LeftForeArm
      direction 1.000000 0.000000 0.000000
      length 8.888997
      axis 0.0 0.0 -90.0 xyz
      dof ry rz rx
   end
   begin
      id 12
      name LeftHand
      direction 0.000000 0.000000 0.000000
      length 0.000000
      axis 0.0 0.0 -90.0 xyz
      dof rx ry rz
   end
   begin
      id 13
      name LeftHand_dum1
      direction 0.000000 0.000000 0.000000
      length 0.000000
      axis 0.0 0.0 -90.0 xyz
   end
   begin
      id 14
      name LeftHand_dum2
      direction 1.000000 0.000000 0.000000
      length 3.937000
      axis 0.0 0.0 -90.0 xyz
   end
   begin
      id 15
      name LeftHandThumb1
      direction 0.000000 0.000000 1.000000
      length 3.937000
      axis 0.0 0.0 -90.0 xyz
      dof rx rz ry
   end
   begin
      id 16
      name RightShoulder
      direction -1.000000 0.000000 0.000000
      length 7.110130
      axis 0.0 0.0 90.0 xyz
      dof rx ry rz
   end
   begin
      id 17
      name RightArm
      direction -1.000000 0.000000 0.000000
      length 10.398341
      axis 0.0 0.0 90.0 xyz
      dof rx ry rz
   end
   begin
      id 18
      name RightForeArm
      direction -1.000000 0.000000 0.000000
      length 8.888997
      axis 0.0 0.0 90.0 xyz
      dof ry rz rx
   end
   begin
      id 19
      name RightHand
      direction 0.000000 0.000000 0.000000
      length 0.000000
      axis 0.0 0.0 90.0 xyz
      dof rx ry rz
   end
   begin
      id 20
      name RightHand_dum1
      direction 0.000000 0.000000 0.000000
      length 0.000000
      axis 0.0 0.0 90.0 xyz
   end
   begin
      id 21
      name RightHand_dum2
      direction -1.000000 0.000000 0.000000
      length 3.937000
      axis 0.0 0.0 90.0 xyz
   end
   begin
      id 22
      name RightHandThumb1
      direction 0.000000 0.000000 1.000000
      length 3.937000
      axis 0.0 0.0 90.0 xyz
      dof rx rz ry
   end
   begin
      id 23
      name LeftUpLeg
      direction 0.000000 -1.000000 0.000000
      length 15.510451
      axis 0.0 0.0 0.0 xyz
      dof rx ry rz
   end
   begin
      id 24
      name LeftLeg
      direction 0.000000 -1.000000 0.000000
      length 14.858061
      axis 0.0 0.0 0.0 xyz
      dof rx ry rz
   end
   begin
      id 25
      name LeftFoot
      direction 0.000000 -0.258819 0.965926
      length 5.128852
      axis 15.0 0.0 0.0 xyz
      dof rx ry rz
   end
   begin
      id 26
      name LeftToeBase
      direction 0.000000 0.000000 1.000000
      length 2.952750
      axis 0.0 0.0 0.0 xyz
      dof rx ry rz
   end
   begin
      id 27
      name RightUpLeg
      direction 0.000000 -1.000000 0.000000
      length 15.510451
      axis 0.0 0.0 0.0 xyz
      dof rx ry rz
   end
   begin
      id 28
      name RightLeg
      direction 0.000000 -1.000000 0.000000
      length 14.858061
      axis 0.0 0.0 0.0 xyz
      dof rx ry rz
   end
   begin
      id 29
      name RightFoot
      direction 0.000000 -0.258819 0.965926
      length 5.128852
      axis 15.0 0.0 0.0 xyz
      dof rx ry rz
   end
   begin
      id 30
      name RightToeBase
      direction 0.000000 0.000000 1.000000
      length 2.952750
      axis 0.0 0.0 0.0 xyz
      dof rx ry rz
   end
:hierarchy
   begin
      root Spine_dum LeftUpLeg_dum RightUpLeg_dum
      Spine_dum Spine
      LeftUpLeg_dum LeftUpLeg
      RightUpLeg_dum RightUpLeg
      Spine Spine_dum1 Spine_dum2 Spine_dum3
      Spine_dum1 Head
      Spine_dum2 LeftShoulder
      Spine_dum3 RightShoulder
      LeftShoulder LeftArm
      LeftArm LeftForeArm
      LeftForeArm LeftHand
      LeftHand LeftHand_dum1 LeftHand_dum2
      LeftHand_dum1 LeftHandThumb1
      RightShoulder RightArm
      RightArm RightForeArm
      RightForeArm RightHand
      RightHand RightHand_dum1 RightHand_dum2
      RightHand_dum1 RightHandThumb1
      LeftUpLeg LeftLeg
      LeftLeg LeftFoot
      LeftFoot LeftToeBase
      RightUpLeg RightLeg
      RightLeg RightFoot
      RightFoot RightToeBase
   end

# File created by Blade
# Date/Time:  Tue Jan 27 19:23:16 2015
# Frame Rate: 120.000 fps
#------------------------------------------------------
:FULLY-SPECIFIED
:DEGREES
821
root 4.924756 32.345116 0.017863 -1.762365 23.734066 2.993304
Spine -0.334971 29.838569 -1.840420
Head 0.310847 -31.923983 -0.099110
LeftShoulder -2.827072 -9.520165 22.069570
LeftArm -4.844724 43.537439 -103.099787
LeftForeArm 3.547450 -0.000000 11.141770
LeftHand 10.120951 -0.000000 -8.216298
LeftHandThumb1 -26.253704 0.000000 33.147579
RightShoulder 2.077778 23.736361 -44.384762
RightArm 54.241527 -9.337863 111.579278
RightForeArm 37.315350 0.000000 23.009763
RightHand 20.591792 -0.000000 -7.314612
RightHandThumb1 -24.326973 -0.000000 -32.862282
LeftUpLeg 5.457144 -15.176678 -4.229458
LeftLeg 2.826161 -0.000000 -0.000000
LeftFoot -12.833607 8.761886 -21.157236
LeftToeBase 17.544644 -0.000000 -0.000000
RightUpLeg 13.122223 -21.707551 -3.399178
RightLeg -2.950226 -0.000000 0.000000
RightFoot -16.091292 -21.181979 19.395495
RightToeBase 9.952560 -0.000000 -0.000000
822
root 4.931326 32.346462 0.011327 -1.767999 23.760613 3.026503
Spine -0.324691 29.775144 -1.844179
Head 0.334274 -32.028918 -0.024018
LeftShoulder -2.811718 -9.515410 22.080033
LeftArm -4.854319 43.491940 -103.102888
LeftForeArm 3.659897 0.000000 11.043193
LeftHand 10.091572 -0.000000 -8.032233
LeftHandThumb1 -26.253704 0.000000 33.147579
RightShoulder 2.067399 23.743249 -44.334503
RightArm 54.241337 -9.197045 111.699623
RightForeArm 37.147614 -0.000000 23.443065
RightHand 20.405340 -0.000000 -7.183772
RightHandThumb1 -24.326973 -0.000000 -32.862282
LeftUpLeg 5.497375 -15.321193 -4.297100
LeftLeg 2.767798 -0.000000 -0.000000
LeftFoot -12.873034 8.914748 -21.291421
LeftToeBase 17.705928 -0.000000 -0.000000
RightUpLeg 13.126195 -21.723326 -3.452738
RightLeg -2.917449 -0.000000 0.000000
RightFoot -16.114103 -21.183299 19.388863
RightToeBase 10.006465 -0.000000 -0.000000
823
root 4.935778 32.346990 0.005842 -1.780343 23.784749 3.033840
Spine -0.319974 29.702257 -1.814292
Head 0.372468 -32.145444 0.000907
LeftShoulder -2.795650 -9.493869 22.082865
LeftArm -4.857765 43.429292 -103.090811
LeftForeArm 3.732684 0.000000 10.968176
LeftHand 10.134686 0.000000 -8.053890
LeftHandThumb1 -26.253704 0.000000 33.147579
RightShoulder 2.052081 23.792860 -44.305583
RightArm 54.229993 -9.157299 111.632666
RightForeArm 37.208891 -0.000000 23.877658
RightHand 20.348930 0.000000 -7.207236
RightHandThumb1 -24.326973 -0.000000 -32.862282
LeftUpLeg 5.521235 -15.405010 -4.328694
LeftLeg 2.739878 -0.000000 -0.000000
LeftFoot -12.871320 8.987738 -21.321056
LeftToeBase 17.750538 -0.000000 -0.000000
RightUpLeg 13.126038 -21.706505 -3.469423
RightLeg -2.890139 -0.000000 0.000000
RightFoot -16.152677 -21.190554 19.440716
RightToeBase 9.980341 -0.000000 -0.000000
824
root 4.937391 32.344980 0.002546 -1.819231 23.812237 2.996210
Spine -0.296890 29.615899 -1.740841
Head 0.362937 -32.245807 0.088500
LeftShoulder -2.802347 -9.481634 22.112920
LeftArm -4.871561 43.376770 -103.107527
LeftForeArm 3.769221 -0.000000 10.904909
LeftHand 10.151295 0.000000 -8.110623
LeftHandThumb1 -26.253704 0.000000 33.147579
RightShoulder 2.044784 23.626130 -44.281018
RightArm 54.389992 -9.128755 111.646697
RightForeArm 37.213776 -0.000000 24.340855
RightHand 20.586379 -0.000000 -7.235888
RightHandThumb1 -24.326973 -0.000000 -32.862282
LeftUpLeg 5.489749 -15.186940 -4.270855
LeftLeg 2.831364 -0.000000 -0.000000
LeftFoot -12.795976 8.730719 -21.114432
LeftToeBase 17.519653 -0.000000 -0.000000
RightUpLeg 13.136308 -21.680177 -3.438086
RightLeg -2.864579 -0.000000 0.000000
RightFoot -16.169553 -21.231248 19.464090
RightToeBase 9.984266 -0.000000 -0.000000
825
root 4.940188 32.344491 -0.001422 -1.844983 23.834229 2.991320
Spine -0.286406 29.552108 -1.702366
Head 0.415650 -32.344231 0.127546
LeftShoulder -2.777009 -9.465155 22.135242
LeftArm -4.886910 43.325683 -103.108244
LeftForeArm 3.752418 0.000000 10.878609
LeftHand 10.147052 -0.000000 -8.247893
LeftHandThumb1 -26.253704 0.000000 33.147579
RightShoulder 2.076044 23.909211 -44.263389
RightArm 54.105368 -8.940431 111.687180
RightForeArm 36.913482 -0.000000 24.893433
RightHand 20.495147 -0.000000 -7.485234
RightHandThumb1 -24.326973 -0.000000 -32.862282
LeftUpLeg 5.494682 -15.125016 -4.265366
LeftLeg 2.841981 -0.000000 -0.000000
LeftFoot -12.818904 8.641016 -21.207570
LeftToeBase 17.714982 -0.000000 -0.000000
RightUpLeg 13.144080 -21.652932 -3.440883
RightLeg -2.834260 -0.000000 0.000000
RightFoot -16.198478 -21.264982 19.479591
RightToeBase 9.962577 -0.000000 -0.000000
